<svg xmlns="http://www.w3.org/2000/svg" xmlns:xlink="http://www.w3.org/1999/xlink" width="500" zoomAndPan="magnify" viewBox="0 0 375 187.499995" height="250" preserveAspectRatio="xMidYMid meet" version="1.0"><defs><g/><clipPath id="e16691217f"><path d="M 0.5 12.582031 L 374.5 12.582031 L 374.5 174.148438 L 0.5 174.148438 Z M 0.5 12.582031 " clip-rule="nonzero"/></clipPath></defs><path fill="#222222" d="M 36.734375 171.890625 C 35.496094 171.890625 34.28125 171.84375 33.121094 171.746094 C 31.03125 171.574219 29.074219 171.488281 27.136719 171.488281 C 26.625 171.488281 26.113281 171.496094 25.605469 171.507812 C 25.214844 171.515625 24.832031 171.519531 24.449219 171.519531 C 21.03125 171.519531 17.796875 171.175781 14.378906 170.8125 C 13.238281 170.691406 12.101562 170.570312 10.957031 170.464844 C 9.617188 170.339844 8.472656 170.0625 7.894531 169.730469 C 7.152344 169.300781 6.523438 168.921875 5.96875 168.5625 L 4.9375 167.898438 L 4.910156 167.914062 L 4.378906 167.445312 L 5.699219 167.339844 L 5.785156 165.390625 C 5.867188 163.597656 5.738281 161.886719 5.617188 160.234375 C 5.539062 159.226562 5.46875 158.269531 5.445312 157.324219 C 5.414062 155.914062 5.417969 154.464844 5.421875 153.0625 C 5.429688 150.800781 5.433594 148.464844 5.289062 146.140625 C 4.851562 139.28125 5.085938 132.261719 5.3125 125.472656 C 5.359375 124.085938 5.402344 122.699219 5.445312 121.3125 L 5.445312 121.203125 C 5.421875 120.171875 5.425781 119.3125 5.503906 118.480469 L 5.511719 118.398438 L 5.511719 118.316406 C 5.554688 116.136719 5.578125 113.960938 5.601562 111.78125 C 5.625 109.875 5.644531 107.96875 5.679688 106.066406 C 5.703125 104.691406 5.71875 103.320312 5.734375 101.949219 C 5.773438 98.382812 5.820312 94.691406 6.015625 91.097656 C 6.089844 89.710938 6.148438 88.324219 6.207031 86.9375 C 6.40625 82.25 6.613281 77.402344 7.523438 72.773438 C 7.632812 72.199219 7.632812 71.664062 7.632812 71.234375 C 7.632812 71.070312 7.628906 70.902344 7.640625 70.738281 C 7.996094 64.820312 7.796875 58.859375 7.601562 53.09375 L 7.484375 49.425781 C 7.300781 43.523438 7.109375 37.425781 6.296875 31.40625 C 6.207031 30.734375 6.234375 30.007812 6.375 29.355469 C 6.652344 28.109375 6.761719 26.9375 6.71875 25.769531 C 6.664062 24.457031 7.039062 23.101562 7.4375 21.664062 C 7.570312 21.175781 7.707031 20.691406 7.824219 20.199219 C 7.875 20 7.953125 19.886719 7.988281 19.859375 L 8.125 19.769531 L 10.601562 18.035156 L 8.199219 16.199219 C 8.113281 16.136719 8.027344 16.070312 7.949219 16.007812 C 8.253906 16.03125 8.578125 16.082031 8.917969 16.164062 C 10.195312 16.460938 11.574219 16.695312 13.140625 16.878906 L 13.226562 16.890625 L 13.308594 16.890625 C 14.828125 16.953125 16.382812 16.984375 18.0625 16.984375 C 21.582031 16.984375 25.042969 16.847656 28.390625 16.714844 C 30.75 16.621094 33.1875 16.527344 35.558594 16.484375 C 38.980469 16.421875 42.464844 16.398438 45.839844 16.375 C 51.152344 16.339844 56.648438 16.300781 62.039062 16.117188 C 70.921875 15.808594 80.640625 15.664062 92.632812 15.664062 C 99 15.664062 105.476562 15.703125 111.738281 15.742188 C 115.035156 15.761719 118.328125 15.78125 121.621094 15.796875 C 122.910156 15.773438 124.148438 15.757812 125.386719 15.757812 C 126.582031 15.757812 127.652344 15.773438 128.65625 15.804688 L 129.058594 15.804688 C 134.101562 15.804688 139.144531 15.789062 144.1875 15.769531 C 148.765625 15.753906 153.347656 15.742188 157.925781 15.738281 C 161.183594 15.734375 164.4375 15.726562 167.695312 15.714844 C 171.316406 15.703125 174.941406 15.691406 178.5625 15.691406 C 184.46875 15.691406 189.304688 15.722656 193.777344 15.789062 C 197.058594 15.839844 200.347656 15.871094 203.632812 15.902344 C 214.984375 16.015625 226.722656 16.128906 238.125 16.972656 C 238.675781 17.015625 239.269531 17.03125 240.039062 17.03125 C 240.339844 17.03125 241.527344 17.019531 241.816406 17.019531 C 242.011719 17.019531 242.207031 17.023438 242.402344 17.023438 C 245.753906 17.082031 249.175781 17.109375 252.859375 17.109375 C 263.289062 17.109375 273.867188 16.878906 284.097656 16.652344 L 292.824219 16.464844 C 306.757812 16.171875 321.171875 15.867188 335.257812 14.957031 C 336.167969 14.894531 337.117188 14.867188 338.070312 14.867188 C 339.296875 14.867188 340.5 14.914062 341.648438 15.011719 C 343.726562 15.183594 345.667969 15.269531 347.585938 15.269531 C 348.09375 15.269531 348.601562 15.261719 349.113281 15.25 C 349.496094 15.242188 349.878906 15.238281 350.257812 15.238281 C 353.652344 15.238281 356.855469 15.582031 360.25 15.945312 C 361.382812 16.066406 362.511719 16.1875 363.648438 16.292969 C 364.972656 16.417969 366.105469 16.691406 366.675781 17.023438 C 367.84375 17.703125 369.179688 18.511719 370.21875 19.367188 L 370.585938 19.671875 L 370.792969 19.726562 L 370.9375 19.820312 L 370.734375 20.371094 C 370.679688 20.515625 370.628906 20.664062 370.589844 20.808594 L 370.539062 20.992188 L 370.519531 21.179688 C 370.277344 23.539062 370.472656 25.726562 370.664062 27.839844 C 370.753906 28.851562 370.839844 29.804688 370.878906 30.753906 C 370.933594 32.160156 370.949219 33.609375 370.964844 35.011719 C 370.992188 37.265625 371.019531 39.59375 371.203125 41.910156 C 371.738281 48.746094 371.609375 55.753906 371.480469 62.527344 C 371.457031 63.910156 371.429688 65.296875 371.410156 66.683594 L 371.410156 66.792969 C 371.449219 67.828125 371.457031 68.683594 371.390625 69.507812 L 371.382812 69.671875 C 371.375 71.835938 371.382812 73.996094 371.390625 76.15625 C 371.398438 78.070312 371.40625 79.984375 371.398438 81.898438 C 371.394531 83.265625 371.402344 84.632812 371.402344 86.003906 C 371.414062 89.5625 371.425781 93.246094 371.28125 96.839844 C 371.226562 98.222656 371.1875 99.609375 371.148438 100.996094 C 371.019531 105.675781 370.886719 110.515625 370.046875 115.144531 C 369.941406 115.71875 369.949219 116.25 369.957031 116.679688 C 369.960938 116.847656 369.964844 117.011719 369.957031 117.175781 C 369.6875 123.085938 369.976562 129.035156 370.253906 134.785156 L 370.429688 138.480469 C 370.699219 144.351562 370.980469 150.421875 371.878906 156.40625 C 371.980469 157.070312 371.960938 157.796875 371.828125 158.449219 C 371.570312 159.695312 371.476562 160.867188 371.539062 162.03125 C 371.609375 163.34375 371.257812 164.699219 370.882812 166.136719 C 370.753906 166.625 370.625 167.113281 370.511719 167.605469 C 370.46875 167.804688 370.394531 167.917969 370.355469 167.945312 L 368.144531 169.558594 L 369.398438 170.757812 C 369.070312 170.734375 368.710938 170.679688 368.335938 170.59375 C 367.042969 170.296875 365.652344 170.0625 364.085938 169.878906 L 364.003906 169.871094 L 363.917969 169.867188 C 362.386719 169.804688 360.820312 169.773438 359.128906 169.773438 C 355.585938 169.773438 352.101562 169.910156 348.734375 170.042969 C 346.355469 170.136719 343.898438 170.230469 341.503906 170.273438 C 338.058594 170.335938 334.542969 170.359375 331.144531 170.382812 C 325.789062 170.417969 320.257812 170.457031 314.824219 170.644531 C 305.878906 170.949219 296.082031 171.09375 284.003906 171.09375 C 277.578125 171.09375 271.039062 171.054688 264.71875 171.015625 C 261.410156 170.996094 258.101562 170.976562 254.796875 170.964844 C 253.503906 170.984375 252.257812 171 251.019531 171 C 249.808594 171 248.726562 170.984375 247.707031 170.953125 L 247.316406 170.953125 C 242.230469 170.953125 237.144531 170.96875 232.0625 170.988281 C 227.449219 171.003906 222.835938 171.019531 218.21875 171.019531 C 214.9375 171.023438 211.65625 171.03125 208.375 171.042969 C 204.726562 171.054688 201.078125 171.066406 197.429688 171.066406 C 191.476562 171.066406 186.605469 171.035156 182.101562 170.96875 C 178.792969 170.917969 175.484375 170.886719 172.171875 170.855469 C 160.734375 170.742188 148.90625 170.628906 137.421875 169.785156 C 136.867188 169.746094 136.273438 169.726562 135.496094 169.726562 C 135.195312 169.726562 134.007812 169.738281 133.71875 169.738281 C 133.515625 169.738281 133.316406 169.734375 133.113281 169.730469 C 129.734375 169.675781 126.289062 169.648438 122.578125 169.648438 C 112.070312 169.648438 101.410156 169.878906 91.105469 170.105469 L 82.242188 170.296875 C 68.226562 170.589844 53.730469 170.894531 39.566406 171.804688 C 38.648438 171.863281 37.695312 171.890625 36.734375 171.890625 Z M 36.734375 171.890625 " fill-opacity="1" fill-rule="nonzero"/><g clip-path="url(#e16691217f)"><path fill="#38b6ff" d="M 374.070312 156.078125 C 373.109375 149.695312 372.871094 143.257812 372.570312 136.835938 C 372.265625 130.324219 371.875 123.804688 372.171875 117.277344 C 372.195312 116.699219 372.121094 116.105469 372.226562 115.539062 C 373.34375 109.382812 373.246094 103.140625 373.496094 96.929688 C 373.695312 91.925781 373.601562 86.914062 373.617188 81.90625 C 373.628906 77.832031 373.582031 73.761719 373.601562 69.683594 C 373.679688 68.699219 373.660156 67.707031 373.625 66.714844 C 373.746094 58.394531 374.0625 50.0625 373.410156 41.738281 C 373.121094 38.0625 373.234375 34.359375 373.089844 30.667969 C 372.972656 27.65625 372.390625 24.621094 372.722656 21.40625 C 372.761719 21.261719 372.816406 21.121094 372.867188 20.980469 C 373.699219 20.578125 373.734375 20.128906 373.460938 19.628906 C 373.472656 19.601562 373.488281 19.578125 373.496094 19.554688 C 373.539062 19.519531 373.570312 19.488281 373.585938 19.457031 C 373.621094 19.382812 373.617188 19.324219 373.59375 19.277344 C 373.691406 18.886719 373.617188 18.5 373.296875 18.128906 C 372.847656 17.609375 372.332031 17.578125 371.746094 17.714844 C 371.707031 17.691406 371.667969 17.675781 371.628906 17.664062 C 370.539062 16.765625 369.199219 15.929688 367.789062 15.113281 C 366.835938 14.558594 365.375 14.234375 363.855469 14.09375 C 358.972656 13.628906 354.195312 12.914062 349.058594 13.039062 C 346.648438 13.097656 344.25 13.011719 341.832031 12.808594 C 339.664062 12.625 337.304688 12.605469 335.113281 12.75 C 319.878906 13.734375 304.496094 14 289.160156 14.332031 C 273.613281 14.664062 258.035156 15.082031 242.441406 14.8125 C 241.054688 14.789062 239.636719 14.867188 238.285156 14.765625 C 223.5625 13.679688 208.652344 13.800781 193.8125 13.578125 C 181.863281 13.402344 169.886719 13.519531 157.925781 13.527344 C 148.191406 13.53125 138.460938 13.597656 128.726562 13.59375 C 126.371094 13.519531 124.003906 13.542969 121.632812 13.582031 C 101.75 13.496094 81.847656 13.21875 61.960938 13.90625 C 53.183594 14.210938 44.335938 14.113281 35.519531 14.273438 C 28.324219 14.402344 21.085938 14.996094 13.398438 14.683594 C 12.046875 14.523438 10.71875 14.3125 9.421875 14.011719 C 8.101562 13.699219 6.800781 13.671875 5.566406 14.121094 C 4.328125 14.570312 4.253906 15.085938 4.589844 15.671875 C 4.519531 15.71875 4.46875 15.765625 4.449219 15.808594 C 4.324219 16.066406 4.605469 16.160156 4.984375 16.207031 C 5.480469 16.824219 6.121094 17.402344 6.851562 17.957031 C 6.8125 17.988281 6.769531 18.011719 6.726562 18.042969 C 6.164062 18.429688 5.832031 19.039062 5.675781 19.671875 C 5.171875 21.710938 4.417969 23.703125 4.503906 25.859375 C 4.542969 26.871094 4.433594 27.875 4.214844 28.882812 C 4.011719 29.789062 3.976562 30.777344 4.101562 31.699219 C 4.964844 38.109375 5.109375 44.566406 5.316406 51.003906 C 5.527344 57.53125 5.820312 64.070312 5.429688 70.605469 C 5.394531 71.1875 5.457031 71.78125 5.347656 72.347656 C 4.140625 78.5 4.144531 84.757812 3.804688 90.976562 C 3.527344 95.984375 3.550781 101.007812 3.464844 106.027344 C 3.390625 110.109375 3.378906 114.191406 3.296875 118.273438 C 3.207031 119.257812 3.210938 120.253906 3.230469 121.25 C 2.984375 129.585938 2.546875 137.925781 3.078125 146.28125 C 3.3125 149.964844 3.144531 153.675781 3.234375 157.378906 C 3.296875 159.964844 3.695312 162.574219 3.570312 165.292969 C 3.066406 165.335938 2.566406 165.433594 2.074219 165.613281 C 0.824219 166.0625 0.75 166.578125 1.089844 167.164062 C 1.019531 167.207031 0.96875 167.253906 0.945312 167.300781 C 0.820312 167.558594 1.105469 167.652344 1.484375 167.699219 C 1.792969 168.078125 2.15625 168.441406 2.5625 168.796875 C 2.460938 169.183594 2.53125 169.5625 2.839844 169.933594 C 3.285156 170.464844 3.796875 170.503906 4.386719 170.375 C 4.433594 170.40625 4.480469 170.425781 4.523438 170.4375 C 4.632812 170.460938 4.707031 170.449219 4.765625 170.421875 C 5.410156 170.835938 6.089844 171.242188 6.785156 171.644531 C 7.75 172.199219 9.21875 172.523438 10.75 172.667969 C 15.667969 173.128906 20.484375 173.84375 25.65625 173.71875 C 28.085938 173.660156 30.5 173.75 32.9375 173.949219 C 35.125 174.132812 37.5 174.152344 39.707031 174.011719 C 55.054688 173.023438 70.550781 172.757812 86.003906 172.429688 C 101.667969 172.09375 117.359375 171.675781 133.074219 171.945312 C 134.46875 171.96875 135.898438 171.890625 137.257812 171.992188 C 152.089844 173.082031 167.113281 172.957031 182.066406 173.179688 C 194.105469 173.359375 206.167969 173.238281 218.222656 173.230469 C 228.027344 173.226562 237.832031 173.164062 247.640625 173.164062 C 250.011719 173.238281 252.394531 173.214844 254.785156 173.175781 C 274.816406 173.261719 294.867188 173.542969 314.902344 172.851562 C 323.746094 172.550781 332.660156 172.644531 341.542969 172.484375 C 348.792969 172.355469 356.085938 171.761719 363.828125 172.074219 C 365.191406 172.234375 366.53125 172.445312 367.835938 172.75 C 369.167969 173.058594 370.476562 173.085938 371.71875 172.636719 C 372.96875 172.1875 373.042969 171.671875 372.703125 171.085938 C 372.773438 171.039062 372.824219 170.992188 372.847656 170.949219 C 372.972656 170.691406 372.6875 170.597656 372.308594 170.550781 C 372.09375 170.289062 371.847656 170.035156 371.585938 169.785156 C 371.605469 169.769531 371.625 169.757812 371.644531 169.746094 C 372.199219 169.347656 372.523438 168.738281 372.671875 168.101562 C 373.144531 166.0625 373.867188 164.0625 373.753906 161.914062 C 373.699219 160.90625 373.792969 159.902344 374 158.890625 C 374.183594 157.980469 374.207031 156.996094 374.070312 156.078125 Z M 363.042969 165.582031 C 358.125 165.121094 353.308594 164.40625 348.136719 164.53125 C 345.707031 164.589844 343.292969 164.5 340.855469 164.296875 C 338.671875 164.117188 336.292969 164.097656 334.085938 164.238281 C 318.738281 165.226562 303.242188 165.492188 287.789062 165.820312 C 272.125 166.15625 256.433594 166.574219 240.71875 166.304688 C 239.324219 166.28125 237.894531 166.359375 236.535156 166.257812 C 221.703125 165.167969 206.679688 165.292969 191.726562 165.070312 C 179.6875 164.890625 167.625 165.007812 155.574219 165.015625 C 145.765625 165.023438 135.964844 165.085938 126.15625 165.085938 C 123.785156 165.011719 121.398438 165.035156 119.007812 165.074219 C 98.976562 164.988281 78.925781 164.707031 58.890625 165.394531 C 50.050781 165.699219 41.132812 165.605469 32.25 165.761719 C 25.027344 165.894531 17.761719 166.480469 10.050781 166.175781 C 10.546875 164.234375 11.226562 162.328125 11.148438 160.273438 C 11.109375 159.261719 11.214844 158.257812 11.4375 157.246094 C 11.636719 156.339844 11.675781 155.351562 11.550781 154.429688 C 10.683594 148.023438 10.539062 141.566406 10.332031 135.128906 C 10.125 128.601562 9.828125 122.058594 10.222656 115.523438 C 10.257812 114.945312 10.191406 114.347656 10.304688 113.78125 C 11.511719 107.628906 11.507812 101.375 11.847656 95.152344 C 12.121094 90.144531 12.097656 85.121094 12.1875 80.101562 C 12.257812 76.019531 12.273438 71.941406 12.351562 67.855469 C 12.445312 66.871094 12.441406 65.878906 12.421875 64.882812 C 12.667969 56.542969 13.105469 48.203125 12.574219 39.851562 C 12.339844 36.164062 12.507812 32.453125 12.417969 28.753906 C 12.355469 26.164062 11.957031 23.554688 12.078125 20.835938 C 12.734375 20.996094 13.449219 21.105469 14.179688 21.175781 C 19.0625 21.636719 23.839844 22.351562 28.976562 22.226562 C 31.386719 22.167969 33.78125 22.257812 36.199219 22.460938 C 38.371094 22.640625 40.730469 22.660156 42.921875 22.519531 C 58.152344 21.535156 73.535156 21.265625 88.875 20.9375 C 104.421875 20.605469 119.996094 20.1875 135.59375 20.453125 C 136.980469 20.476562 138.398438 20.402344 139.746094 20.5 C 154.46875 21.589844 169.382812 21.46875 184.222656 21.6875 C 196.171875 21.867188 208.144531 21.75 220.109375 21.742188 C 229.84375 21.734375 239.570312 21.671875 249.308594 21.671875 C 251.660156 21.746094 254.03125 21.722656 256.402344 21.683594 C 276.285156 21.769531 296.1875 22.050781 316.070312 21.363281 C 324.847656 21.058594 333.699219 21.152344 342.515625 20.996094 C 349.710938 20.863281 356.949219 20.269531 364.632812 20.585938 C 365.277344 20.660156 365.914062 20.75 366.546875 20.855469 C 366.394531 21.121094 366.285156 21.40625 366.214844 21.703125 C 365.742188 23.746094 365.019531 25.742188 365.136719 27.894531 C 365.191406 28.902344 365.097656 29.90625 364.890625 30.917969 C 364.703125 31.824219 364.679688 32.8125 364.816406 33.730469 C 365.777344 40.109375 366.015625 46.550781 366.316406 52.972656 C 366.625 59.480469 367.015625 66 366.71875 72.527344 C 366.691406 73.109375 366.765625 73.703125 366.664062 74.265625 C 365.542969 80.425781 365.640625 86.667969 365.390625 92.878906 C 365.191406 97.878906 365.285156 102.890625 365.273438 107.898438 C 365.261719 111.972656 365.308594 116.046875 365.289062 120.121094 C 365.207031 121.105469 365.226562 122.097656 365.261719 123.089844 C 365.140625 131.414062 364.824219 139.742188 365.476562 148.070312 C 365.765625 151.746094 365.652344 155.449219 365.796875 159.140625 C 365.886719 161.472656 366.253906 163.820312 366.261719 166.257812 C 365.359375 165.910156 364.21875 165.691406 363.042969 165.582031 Z M 363.042969 165.582031 " fill-opacity="1" fill-rule="nonzero"/></g><g fill="#38b6ff" fill-opacity="1"><g transform="translate(22.524383, 128.087303)"><g><path d="M 47.140625 -18.28125 C 47.140625 -12.332031 45 -7.644531 40.71875 -4.21875 C 36.445312 -0.800781 30.5 0.90625 22.875 0.90625 C 15.851562 0.90625 9.640625 -0.414062 4.234375 -3.0625 L 4.234375 -16.03125 C 8.671875 -14.050781 12.425781 -12.65625 15.5 -11.84375 C 18.582031 -11.03125 21.398438 -10.625 23.953125 -10.625 C 27.015625 -10.625 29.363281 -11.207031 31 -12.375 C 32.632812 -13.550781 33.453125 -15.296875 33.453125 -17.609375 C 33.453125 -18.898438 33.09375 -20.046875 32.375 -21.046875 C 31.65625 -22.054688 30.597656 -23.023438 29.203125 -23.953125 C 27.804688 -24.878906 24.960938 -26.363281 20.671875 -28.40625 C 16.648438 -30.300781 13.628906 -32.117188 11.609375 -33.859375 C 9.597656 -35.597656 7.992188 -37.625 6.796875 -39.9375 C 5.597656 -42.25 5 -44.953125 5 -48.046875 C 5 -53.867188 6.972656 -58.445312 10.921875 -61.78125 C 14.867188 -65.113281 20.320312 -66.78125 27.28125 -66.78125 C 30.707031 -66.78125 33.972656 -66.375 37.078125 -65.5625 C 40.179688 -64.75 43.429688 -63.609375 46.828125 -62.140625 L 42.328125 -51.28125 C 38.816406 -52.726562 35.910156 -53.734375 33.609375 -54.296875 C 31.316406 -54.867188 29.0625 -55.15625 26.84375 -55.15625 C 24.195312 -55.15625 22.164062 -54.539062 20.75 -53.3125 C 19.34375 -52.082031 18.640625 -50.476562 18.640625 -48.5 C 18.640625 -47.269531 18.925781 -46.195312 19.5 -45.28125 C 20.070312 -44.363281 20.976562 -43.476562 22.21875 -42.625 C 23.46875 -41.769531 26.414062 -40.226562 31.0625 -38 C 37.21875 -35.0625 41.4375 -32.113281 43.71875 -29.15625 C 46 -26.195312 47.140625 -22.570312 47.140625 -18.28125 Z M 47.140625 -18.28125 "/></g></g></g><g fill="#38b6ff" fill-opacity="1"><g transform="translate(73.318559, 128.087303)"><g><path d="M 8.28125 0 L 8.28125 -65.828125 L 22.25 -65.828125 L 22.25 0 Z M 8.28125 0 "/></g></g></g><g fill="#38b6ff" fill-opacity="1"><g transform="translate(103.849101, 128.087303)"><g><path d="M 36.15625 0 L 20.3125 -51.640625 L 19.90625 -51.640625 C 20.476562 -41.140625 20.765625 -34.132812 20.765625 -30.625 L 20.765625 0 L 8.28125 0 L 8.28125 -65.828125 L 27.28125 -65.828125 L 42.875 -15.484375 L 43.140625 -15.484375 L 59.65625 -65.828125 L 78.671875 -65.828125 L 78.671875 0 L 65.65625 0 L 65.65625 -31.15625 C 65.65625 -32.625 65.675781 -34.316406 65.71875 -36.234375 C 65.757812 -38.160156 65.960938 -43.269531 66.328125 -51.5625 L 65.921875 -51.5625 L 48.953125 0 Z M 36.15625 0 "/></g></g></g><g fill="#38b6ff" fill-opacity="1"><g transform="translate(190.80262, 128.087303)"><g><path d="M 22.25 -34.859375 L 26.84375 -34.859375 C 31.132812 -34.859375 34.34375 -35.703125 36.46875 -37.390625 C 38.601562 -39.085938 39.671875 -41.554688 39.671875 -44.796875 C 39.671875 -48.078125 38.773438 -50.492188 36.984375 -52.046875 C 35.203125 -53.609375 32.40625 -54.390625 28.59375 -54.390625 L 22.25 -54.390625 Z M 53.765625 -45.296875 C 53.765625 -38.210938 51.550781 -32.796875 47.125 -29.046875 C 42.695312 -25.296875 36.398438 -23.421875 28.234375 -23.421875 L 22.25 -23.421875 L 22.25 0 L 8.28125 0 L 8.28125 -65.828125 L 29.3125 -65.828125 C 37.300781 -65.828125 43.375 -64.109375 47.53125 -60.671875 C 51.6875 -57.234375 53.765625 -52.109375 53.765625 -45.296875 Z M 53.765625 -45.296875 "/></g></g></g><g fill="#38b6ff" fill-opacity="1"><g transform="translate(248.711584, 128.087303)"><g><path d="M 8.28125 0 L 8.28125 -65.828125 L 22.25 -65.828125 L 22.25 -11.53125 L 48.953125 -11.53125 L 48.953125 0 Z M 8.28125 0 "/></g></g></g><g fill="#38b6ff" fill-opacity="1"><g transform="translate(300.811653, 128.087303)"><g><path d="M 46.203125 0 L 8.28125 0 L 8.28125 -65.828125 L 46.203125 -65.828125 L 46.203125 -54.390625 L 22.25 -54.390625 L 22.25 -39.9375 L 44.53125 -39.9375 L 44.53125 -28.5 L 22.25 -28.5 L 22.25 -11.53125 L 46.203125 -11.53125 Z M 46.203125 0 "/></g></g></g></svg>