<svg xmlns="http://www.w3.org/2000/svg" xmlns:xlink="http://www.w3.org/1999/xlink" width="60" zoomAndPan="magnify" viewBox="0 0 45 44.999999" height="60" preserveAspectRatio="xMidYMid meet" version="1.0"><defs><g/></defs><g fill="#38b6ff" fill-opacity="1"><g transform="translate(2.1, 41.686923)"><g><path d="M 26.15625 -10.140625 C 26.15625 -6.847656 24.96875 -4.25 22.59375 -2.34375 C 20.21875 -0.445312 16.914062 0.5 12.6875 0.5 C 8.789062 0.5 5.34375 -0.234375 2.34375 -1.703125 L 2.34375 -8.890625 C 4.8125 -7.796875 6.898438 -7.019531 8.609375 -6.5625 C 10.316406 -6.113281 11.875 -5.890625 13.28125 -5.890625 C 14.988281 -5.890625 16.296875 -6.210938 17.203125 -6.859375 C 18.109375 -7.515625 18.5625 -8.484375 18.5625 -9.765625 C 18.5625 -10.484375 18.359375 -11.117188 17.953125 -11.671875 C 17.554688 -12.234375 16.96875 -12.769531 16.1875 -13.28125 C 15.414062 -13.800781 13.84375 -14.628906 11.46875 -15.765625 C 9.238281 -16.804688 7.5625 -17.8125 6.4375 -18.78125 C 5.320312 -19.75 4.429688 -20.875 3.765625 -22.15625 C 3.097656 -23.4375 2.765625 -24.9375 2.765625 -26.65625 C 2.765625 -29.882812 3.859375 -32.421875 6.046875 -34.265625 C 8.242188 -36.117188 11.273438 -37.046875 15.140625 -37.046875 C 17.035156 -37.046875 18.84375 -36.816406 20.5625 -36.359375 C 22.289062 -35.910156 24.097656 -35.28125 25.984375 -34.46875 L 23.484375 -28.453125 C 21.535156 -29.253906 19.921875 -29.8125 18.640625 -30.125 C 17.367188 -30.4375 16.117188 -30.59375 14.890625 -30.59375 C 13.421875 -30.59375 12.296875 -30.25 11.515625 -29.5625 C 10.734375 -28.882812 10.34375 -28 10.34375 -26.90625 C 10.34375 -26.21875 10.5 -25.617188 10.8125 -25.109375 C 11.132812 -24.609375 11.640625 -24.117188 12.328125 -23.640625 C 13.015625 -23.171875 14.648438 -22.316406 17.234375 -21.078125 C 20.648438 -19.453125 22.988281 -17.816406 24.25 -16.171875 C 25.519531 -14.535156 26.15625 -12.523438 26.15625 -10.140625 Z M 26.15625 -10.140625 "/></g></g></g><g fill="#38b6ff" fill-opacity="1"><g transform="translate(33.184071, 41.611324)"><g><path d="M 2.3125 -22.125 C 2.3125 -23.6875 3.179688 -24.46875 4.921875 -24.46875 C 6.660156 -24.46875 7.53125 -23.6875 7.53125 -22.125 C 7.53125 -21.375 7.3125 -20.789062 6.875 -20.375 C 6.445312 -19.96875 5.796875 -19.765625 4.921875 -19.765625 C 3.179688 -19.765625 2.3125 -20.550781 2.3125 -22.125 Z M 7.3125 0 L 2.515625 0 L 2.515625 -17.578125 L 7.3125 -17.578125 Z M 7.3125 0 "/></g></g></g></svg>