<svg xmlns="http://www.w3.org/2000/svg" xmlns:xlink="http://www.w3.org/1999/xlink" width="60" zoomAndPan="magnify" viewBox="0 0 45 44.999999" height="60" preserveAspectRatio="xMidYMid meet" version="1.0"><path fill="#38b6ff" d="M 22.503906 45.003906 C 10.09375 45.003906 0 34.910156 0 22.503906 C 0 10.09375 10.09375 0 22.503906 0 C 34.910156 0 45.003906 10.09375 45.003906 22.503906 C 45.003906 34.910156 34.910156 45.003906 22.503906 45.003906 Z M 22.503906 2.226562 C 11.324219 2.226562 2.226562 11.324219 2.226562 22.503906 C 2.226562 33.683594 11.324219 42.777344 22.503906 42.777344 C 33.683594 42.777344 42.777344 33.683594 42.777344 22.503906 C 42.777344 11.324219 33.683594 2.226562 22.503906 2.226562 Z M 22.503906 2.226562 " fill-opacity="1" fill-rule="nonzero"/><path fill="#38b6ff" d="M 12.234375 13.320312 C 18.601562 19.949219 24.96875 26.574219 31.335938 33.203125 C 32.269531 34.175781 33.746094 32.699219 32.8125 31.726562 C 26.445312 25.097656 20.078125 18.46875 13.710938 11.84375 C 12.777344 10.867188 11.300781 12.347656 12.234375 13.320312 Z M 12.234375 13.320312 " fill-opacity="1" fill-rule="nonzero"/><path fill="#38b6ff" d="M 31.335938 11.84375 C 24.96875 18.46875 18.601562 25.097656 12.234375 31.726562 C 11.300781 32.699219 12.777344 34.175781 13.710938 33.203125 C 20.078125 26.574219 26.445312 19.949219 32.8125 13.320312 C 33.746094 12.347656 32.269531 10.867188 31.335938 11.84375 Z M 31.335938 11.84375 " fill-opacity="1" fill-rule="nonzero"/></svg>